<mxfile host="65bd71144e">
    <diagram id="nu_XYP83F8bOdvvS0b1L" name="Page-1">
        <mxGraphModel dx="1258" dy="486" grid="1" gridSize="10" guides="1" tooltips="1" connect="1" arrows="1" fold="1" page="1" pageScale="1" pageWidth="850" pageHeight="1100" math="0" shadow="0">
            <root>
                <mxCell id="0"/>
                <mxCell id="1" parent="0"/>
                <mxCell id="15" value="is owned by" style="edgeStyle=orthogonalEdgeStyle;rounded=0;orthogonalLoop=1;jettySize=auto;exitX=0.5;exitY=0;exitDx=0;exitDy=0;entryX=0.5;entryY=1;entryDx=0;entryDy=0;startArrow=ERzeroToOne;startFill=1;endArrow=ERone;endFill=0;fontFamily=Montserrat;" parent="1" source="2" target="4" edge="1">
                    <mxGeometry y="-40" relative="1" as="geometry">
                        <mxPoint as="offset"/>
                    </mxGeometry>
                </mxCell>
                <mxCell id="2" value="Allocation" style="rounded=0;gradientColor=#97d077;fillColor=#d5e8d4;strokeColor=#82b366;fontFamily=Montserrat;" parent="1" vertex="1">
                    <mxGeometry x="440" y="280" width="120" height="60" as="geometry"/>
                </mxCell>
                <mxCell id="3" value="Transfer" style="rounded=0;gradientColor=#97d077;fillColor=#d5e8d4;strokeColor=#82b366;fontFamily=Montserrat;" parent="1" vertex="1">
                    <mxGeometry x="280" y="380" width="120" height="60" as="geometry"/>
                </mxCell>
                <mxCell id="13" value="is owned by" style="edgeStyle=orthogonalEdgeStyle;rounded=0;orthogonalLoop=1;jettySize=auto;exitX=1;exitY=0.5;exitDx=0;exitDy=0;entryX=0.25;entryY=1;entryDx=0;entryDy=0;startArrow=ERone;startFill=0;endArrow=ERzeroToOne;endFill=1;fontFamily=Montserrat;" parent="1" source="4" target="6" edge="1">
                    <mxGeometry x="0.2857" y="20" relative="1" as="geometry">
                        <mxPoint as="offset"/>
                    </mxGeometry>
                </mxCell>
                <mxCell id="20" value="is part of" style="edgeStyle=orthogonalEdgeStyle;rounded=0;orthogonalLoop=1;jettySize=auto;exitX=0;exitY=0.25;exitDx=0;exitDy=0;entryX=1;entryY=0.25;entryDx=0;entryDy=0;startArrow=ERone;startFill=0;endArrow=ERoneToMany;endFill=0;fontFamily=Montserrat;" parent="1" source="4" target="19" edge="1">
                    <mxGeometry y="-25" relative="1" as="geometry">
                        <Array as="points">
                            <mxPoint x="420" y="195"/>
                            <mxPoint x="420" y="195"/>
                        </Array>
                        <mxPoint as="offset"/>
                    </mxGeometry>
                </mxCell>
                <mxCell id="4" value="Fractionset" style="rounded=0;gradientColor=#97d077;fillColor=#d5e8d4;strokeColor=#82b366;fontFamily=Montserrat;" parent="1" vertex="1">
                    <mxGeometry x="440" y="180" width="120" height="60" as="geometry"/>
                </mxCell>
                <mxCell id="14" value="belongs to" style="edgeStyle=orthogonalEdgeStyle;rounded=0;orthogonalLoop=1;jettySize=auto;exitX=1;exitY=0.5;exitDx=0;exitDy=0;entryX=0;entryY=0.5;entryDx=0;entryDy=0;startArrow=ERone;startFill=0;endArrow=ERzeroToMany;endFill=1;fontFamily=Montserrat;" parent="1" source="5" target="2" edge="1">
                    <mxGeometry relative="1" as="geometry"/>
                </mxCell>
                <mxCell id="16" value="received by" style="edgeStyle=orthogonalEdgeStyle;rounded=0;orthogonalLoop=1;jettySize=auto;exitX=0.75;exitY=1;exitDx=0;exitDy=0;startArrow=ERone;startFill=0;endArrow=ERzeroToMany;endFill=1;fontFamily=Montserrat;entryX=0.5;entryY=0;entryDx=0;entryDy=0;" parent="1" edge="1" target="3" source="5">
                    <mxGeometry relative="1" as="geometry">
                        <mxPoint x="180" y="340" as="sourcePoint"/>
                        <mxPoint x="180" y="400" as="targetPoint"/>
                        <Array as="points">
                            <mxPoint x="210" y="360"/>
                            <mxPoint x="340" y="360"/>
                        </Array>
                    </mxGeometry>
                </mxCell>
                <mxCell id="27" value="is composed of" style="edgeStyle=none;html=1;exitX=0.25;exitY=1;exitDx=0;exitDy=0;entryX=0.25;entryY=0;entryDx=0;entryDy=0;startArrow=ERone;startFill=0;endArrow=ERoneToMany;endFill=0;" edge="1" parent="1" source="5" target="25">
                    <mxGeometry relative="1" as="geometry"/>
                </mxCell>
                <mxCell id="5" value="Charity" style="rounded=0;gradientColor=#97d077;fillColor=#d5e8d4;strokeColor=#82b366;fontFamily=Montserrat;" parent="1" vertex="1">
                    <mxGeometry x="120" y="280" width="120" height="60" as="geometry"/>
                </mxCell>
                <mxCell id="18" value="exited from" style="edgeStyle=orthogonalEdgeStyle;rounded=0;orthogonalLoop=1;jettySize=auto;exitX=0.5;exitY=1;exitDx=0;exitDy=0;entryX=1;entryY=0.5;entryDx=0;entryDy=0;startArrow=ERone;startFill=0;endArrow=ERzeroToMany;endFill=1;fontFamily=Montserrat;" parent="1" source="6" target="2" edge="1">
                    <mxGeometry relative="1" as="geometry"/>
                </mxCell>
                <mxCell id="6" value="Option" style="rounded=0;gradientColor=#97d077;fillColor=#d5e8d4;strokeColor=#82b366;fontFamily=Montserrat;" parent="1" vertex="1">
                    <mxGeometry x="600" y="80" width="120" height="60" as="geometry"/>
                </mxCell>
                <mxCell id="9" value="belongs to" style="edgeStyle=orthogonalEdgeStyle;rounded=0;orthogonalLoop=1;jettySize=auto;exitX=1;exitY=0.5;exitDx=0;exitDy=0;entryX=0;entryY=0.5;entryDx=0;entryDy=0;endArrow=ERone;endFill=0;startArrow=ERzeroToMany;startFill=1;fontFamily=Montserrat;" parent="1" source="7" target="6" edge="1">
                    <mxGeometry relative="1" as="geometry"/>
                </mxCell>
                <mxCell id="11" value="benificiary to" style="edgeStyle=orthogonalEdgeStyle;rounded=0;orthogonalLoop=1;jettySize=auto;startArrow=ERzeroToMany;startFill=1;endArrow=ERone;endFill=0;fontFamily=Montserrat;" parent="1" source="7" target="5" edge="1">
                    <mxGeometry x="0.2857" relative="1" as="geometry">
                        <mxPoint as="offset"/>
                    </mxGeometry>
                </mxCell>
                <mxCell id="22" value="pertains to" style="edgeStyle=orthogonalEdgeStyle;rounded=0;orthogonalLoop=1;jettySize=auto;exitX=0.75;exitY=1;exitDx=0;exitDy=0;entryX=0;entryY=0.5;entryDx=0;entryDy=0;startArrow=ERone;startFill=0;endArrow=ERzeroToMany;endFill=1;fontFamily=Montserrat;" parent="1" source="7" target="19" edge="1">
                    <mxGeometry x="-0.2857" y="10" relative="1" as="geometry">
                        <mxPoint as="offset"/>
                    </mxGeometry>
                </mxCell>
                <mxCell id="7" value="Donation" style="rounded=0;gradientColor=#97d077;fillColor=#d5e8d4;strokeColor=#82b366;fontFamily=Montserrat;" parent="1" vertex="1">
                    <mxGeometry x="120" y="80" width="120" height="60" as="geometry"/>
                </mxCell>
                <mxCell id="19" value="Fraction" style="rounded=0;gradientColor=#97d077;fillColor=#d5e8d4;strokeColor=#82b366;fontFamily=Montserrat;" parent="1" vertex="1">
                    <mxGeometry x="280" y="180" width="120" height="60" as="geometry"/>
                </mxCell>
                <mxCell id="28" value="is part of" style="edgeStyle=orthogonalEdgeStyle;html=1;exitX=0;exitY=0.5;exitDx=0;exitDy=0;entryX=0;entryY=0.5;entryDx=0;entryDy=0;startArrow=ERoneToMany;startFill=0;endArrow=ERone;endFill=0;rounded=0;" edge="1" parent="1" source="25" target="5">
                    <mxGeometry relative="1" as="geometry">
                        <Array as="points">
                            <mxPoint x="60" y="410"/>
                            <mxPoint x="60" y="310"/>
                        </Array>
                    </mxGeometry>
                </mxCell>
                <mxCell id="25" value="Charity Partition" style="rounded=0;gradientColor=#97d077;fillColor=#d5e8d4;strokeColor=#82b366;fontFamily=Montserrat;" vertex="1" parent="1">
                    <mxGeometry x="120" y="380" width="120" height="60" as="geometry"/>
                </mxCell>
            </root>
        </mxGraphModel>
    </diagram>
</mxfile>